<?xml version="1.0" standalone="no"?>
<!DOCTYPE svg PUBLIC "-//W3C//DTD SVG 20010904//EN"
 "http://www.w3.org/TR/2001/REC-SVG-20010904/DTD/svg10.dtd">
<svg version="1.0" xmlns="http://www.w3.org/2000/svg"
 width="1280.000000pt" height="640.000000pt" viewBox="0 0 1280.000000 640.000000"
 preserveAspectRatio="xMidYMid meet">
<metadata>
Created by potrace 1.15, written by Peter Selinger 2001-2017
</metadata>
<g transform="translate(0.000000,640.000000) scale(0.100000,-0.100000)"
fill="#000000" stroke="none">
<path d="M11546 5730 c-356 -17 -957 -68 -2141 -180 -553 -52 -1103 -102
-1325 -120 -487 -38 -584 -42 -1310 -50 -788 -8 -909 -15 -1140 -60 -326 -63
-485 -172 -483 -334 0 -34 8 -78 17 -99 15 -33 17 -114 20 -715 3 -372 9 -776
15 -897 52 -1071 158 -1697 348 -2069 66 -128 173 -237 258 -262 197 -57 1326
48 2985 276 313 43 970 126 1230 155 1061 118 1923 144 2601 80 l66 -7 57 67
57 67 -6 327 c-14 759 -45 1515 -90 2231 -46 714 -67 946 -106 1170 -12 63
-24 149 -27 191 -7 74 -8 77 -57 127 -54 56 -92 73 -205 92 -86 15 -538 21
-764 10z m733 -200 c35 -5 68 -13 73 -18 6 -6 -19 -38 -68 -88 -150 -148 -352
-293 -1169 -839 -623 -416 -718 -482 -972 -672 -376 -283 -722 -603 -934 -865
-182 -225 -243 -262 -434 -262 -85 0 -129 5 -195 24 -210 58 -445 177 -750
380 -189 126 -315 202 -503 304 -372 203 -529 309 -939 638 -267 215 -413 324
-573 428 -183 119 -310 213 -377 278 l-58 56 0 74 0 73 54 25 c191 87 614 123
1446 124 595 0 846 14 1595 85 1627 155 2602 234 3180 258 174 7 566 6 624 -3z
m146 -371 c69 -501 153 -2016 172 -3113 l6 -399 -34 6 c-179 32 -1175 34
-1604 3 -645 -46 -1067 -93 -2215 -246 -1339 -178 -1637 -212 -2320 -265 -370
-28 -525 -32 -573 -11 -108 45 -220 271 -292 591 -115 515 -169 1204 -182
2304 -5 510 -4 593 8 586 8 -5 33 -23 56 -41 23 -18 133 -92 245 -166 112 -74
302 -213 423 -308 121 -96 285 -225 365 -288 197 -155 446 -319 680 -447 207
-114 250 -140 595 -355 466 -291 693 -391 950 -421 104 -11 174 -6 265 23 140
43 205 95 389 311 195 231 459 485 716 692 270 217 491 373 1215 855 666 445
945 642 1061 748 30 28 55 49 57 48 1 -2 9 -50 17 -107z"/>
<path d="M2215 3719 c-494 -32 -935 -107 -1854 -314 -162 -36 -302 -70 -312
-76 -68 -36 -61 -139 11 -169 28 -12 63 -6 358 60 1020 227 1391 286 1954 311
273 12 646 1 1035 -31 158 -13 251 -16 267 -10 58 22 76 111 32 155 -29 29
-39 31 -296 50 -469 35 -896 44 -1195 24z"/>
<path d="M3010 2734 c-63 -8 -214 -30 -335 -50 -402 -64 -608 -93 -755 -106
-137 -11 -147 -13 -172 -39 -38 -38 -39 -99 -2 -136 26 -26 26 -26 148 -20
118 7 397 44 686 92 431 71 628 90 875 82 225 -7 384 -35 593 -102 55 -17 93
-24 113 -20 66 15 93 108 44 157 -33 33 -233 95 -435 134 -118 24 -598 29
-760 8z"/>
<path d="M3820 1729 c-644 -21 -1186 -96 -1634 -225 -458 -132 -789 -261
-1600 -620 -121 -53 -151 -83 -141 -139 6 -37 57 -85 90 -85 13 0 109 38 212
84 1406 627 1981 766 3289 796 252 5 410 13 423 19 66 36 66 132 0 167 -31 16
-235 17 -639 3z"/>
</g>
</svg>
